# xmcd
#
# Track frame offsets:
# 150
# 15437
# 31662
# 51620
# 76792
# 90092
# 106765
# 127790
# 147735
# 164012
# 182690
# 200535
# 220537
#
# Disc length: 3126 seconds
#
#
# Revision: 4
# Processed by: cddbd v1.5.1PL0 Copyright (c) Steve Scherf et al.
# Submitted via: FreeRIP 2.941 
#
DISCID=9f0c340d
DTITLE=The Blues Company - Invitation To The Blues
DYEAR=2000
DGENRE=Blues
TTITLE0=Havin' A Ball
TTITLE1=Invitaiton To The Blues
TTITLE2=Drivin' Through Texas
TTITLE3=747
TTITLE4=Jet Set Shuffle
TTITLE5=Good Man Bad
TTITLE6=Run Your Finger Through My Hair
TTITLE7=Warm Night In June
TTITLE8=Fine! Fine! Fine!
TTITLE9=What Love Can Do
TTITLE10=Same Old Feeling
TTITLE11=Goin' Down
TTITLE12=My Littles Angel
EXTD=feat. the fabulous b.c. horns
EXTT0=
EXTT1=
EXTT2=
EXTT3=
EXTT4=
EXTT5=
EXTT6=
EXTT7=
EXTT8=
EXTT9=
EXTT10=
EXTT11=
EXTT12=
PLAYORDER=
